HIERARCHY
ROOT Hips
{
	OFFSET -14.64140 90.27770 -84.91600
	CHANNELS 6 Xposition Yposition Zposition Zrotation Xrotation Yrotation
	JOINT Spine
	{
		OFFSET 0.00000 13.20850 -1.60436
		CHANNELS 3 Zrotation Xrotation Yrotation
		JOINT Spine1
		{
			OFFSET 0.00000 8.61716 0.00000
			CHANNELS 3 Zrotation Xrotation Yrotation
			JOINT Spine2
			{
				OFFSET 0.00000 8.61717 0.00000
				CHANNELS 3 Zrotation Xrotation Yrotation
				JOINT Spine3
				{
					OFFSET 0.00000 8.61717 0.00000
					CHANNELS 3 Zrotation Xrotation Yrotation
					JOINT Neck
					{
						OFFSET 0.00000 11.07920 1.10792
						CHANNELS 3 Zrotation Xrotation Yrotation
						JOINT Neck1
						{
							OFFSET 0.00000 7.08032 0.00000
							CHANNELS 3 Zrotation Xrotation Yrotation
							JOINT Head
							{
								OFFSET 0.00000 7.08031 0.00000
								CHANNELS 3 Zrotation Xrotation Yrotation
								End site
								{
									OFFSET 0.00000 0.00000 0.00000
								}
							}
						}
					}
					JOINT RightShoulder
					{
						OFFSET -0.01000 7.91373 5.19711
						CHANNELS 3 Zrotation Xrotation Yrotation
						JOINT RightArm
						{
							OFFSET -18.41580 0.00000 0.00000
							CHANNELS 3 Zrotation Xrotation Yrotation
							JOINT RightForeArm
							{
								OFFSET -29.11090 0.00000 0.00000
								CHANNELS 3 Zrotation Xrotation Yrotation
								JOINT RightHand
								{
									OFFSET -24.65040 0.00000 0.00000
									CHANNELS 3 Zrotation Xrotation Yrotation
									JOINT RightHandThumb1
									{
										OFFSET -5.35114 -0.85590 3.97906
										CHANNELS 3 Zrotation Xrotation Yrotation
										JOINT RightHandThumb2
										{
											OFFSET -4.52789 0.00000 0.00000
											CHANNELS 3 Zrotation Xrotation Yrotation
											JOINT RightHandThumb3
											{
												OFFSET -2.46976 0.00000 0.00000
												CHANNELS 3 Zrotation Xrotation Yrotation
												End site
												{
													OFFSET 0.00000 0.00000 0.00000
												}
											}
										}
									}
									JOINT RightHandIndex1
									{
										OFFSET -14.26970 0.00000 2.88139
										CHANNELS 3 Zrotation Xrotation Yrotation
										JOINT RightHandIndex2
										{
											OFFSET -5.48836 0.00000 0.00000
											CHANNELS 3 Zrotation Xrotation Yrotation
											JOINT RightHandIndex3
											{
												OFFSET -3.01859 0.00000 0.00000
												CHANNELS 3 Zrotation Xrotation Yrotation
												End site
												{
													OFFSET 0.00000 0.00000 0.00000
												}
											}
										}
									}
									JOINT RightHandMiddle1
									{
										OFFSET -14.26970 0.00000 -0.09147
										CHANNELS 3 Zrotation Xrotation Yrotation
										JOINT RightHandMiddle2
										{
											OFFSET -6.17441 0.00000 0.00000
											CHANNELS 3 Zrotation Xrotation Yrotation
											JOINT RightHandMiddle3
											{
												OFFSET -3.56743 0.00000 0.00000
												CHANNELS 3 Zrotation Xrotation Yrotation
												End site
												{
													OFFSET 0.00000 0.00000 0.00000
												}
											}
										}
									}
									JOINT RightHandRing1
									{
										OFFSET -12.69180 0.00000 -3.06433
										CHANNELS 3 Zrotation Xrotation Yrotation
										JOINT RightHandRing2
										{
											OFFSET -5.62556 0.00000 0.00000
											CHANNELS 3 Zrotation Xrotation Yrotation
											JOINT RightHandRing3
											{
												OFFSET -3.56744 0.00000 0.00000
												CHANNELS 3 Zrotation Xrotation Yrotation
												End site
												{
													OFFSET 0.00000 0.00000 0.00000
												}
											}
										}
									}
									JOINT RightHandPinky1
									{
										OFFSET -11.11390 0.00000 -6.03719
										CHANNELS 3 Zrotation Xrotation Yrotation
										JOINT RightHandPinky2
										{
											OFFSET -4.52789 0.00000 0.00000
											CHANNELS 3 Zrotation Xrotation Yrotation
											JOINT RightHandPinky3
											{
												OFFSET -2.46976 0.00000 0.00000
												CHANNELS 3 Zrotation Xrotation Yrotation
												End site
												{
													OFFSET 0.00000 0.00000 0.00000
												}
											}
										}
									}
								}
							}
						}
					}
					JOINT LeftShoulder
					{
						OFFSET 0.01000 7.91373 5.19711
						CHANNELS 3 Zrotation Xrotation Yrotation
						JOINT LeftArm
						{
							OFFSET 18.41580 0.00000 0.00000
							CHANNELS 3 Zrotation Xrotation Yrotation
							JOINT LeftForeArm
							{
								OFFSET 29.11090 0.00000 0.00000
								CHANNELS 3 Zrotation Xrotation Yrotation
								JOINT LeftHand
								{
									OFFSET 24.65040 0.00000 0.00000
									CHANNELS 3 Zrotation Xrotation Yrotation
									JOINT LeftHandThumb1
									{
										OFFSET 5.35114 -0.85590 3.97906
										CHANNELS 3 Zrotation Xrotation Yrotation
										JOINT LeftHandThumb2
										{
											OFFSET 4.52789 0.00000 0.00000
											CHANNELS 3 Zrotation Xrotation Yrotation
											JOINT LeftHandThumb3
											{
												OFFSET 2.46977 0.00000 0.00000
												CHANNELS 3 Zrotation Xrotation Yrotation
												End site
												{
													OFFSET 0.00000 0.00000 0.00000
												}
											}
										}
									}
									JOINT LeftHandIndex1
									{
										OFFSET 14.26970 0.00000 2.88139
										CHANNELS 3 Zrotation Xrotation Yrotation
										JOINT LeftHandIndex2
										{
											OFFSET 5.48836 0.00000 0.00000
											CHANNELS 3 Zrotation Xrotation Yrotation
											JOINT LeftHandIndex3
											{
												OFFSET 3.01859 0.00000 0.00000
												CHANNELS 3 Zrotation Xrotation Yrotation
												End site
												{
													OFFSET 0.00000 0.00000 0.00000
												}
											}
										}
									}
									JOINT LeftHandMiddle1
									{
										OFFSET 14.26970 0.00000 -0.09147
										CHANNELS 3 Zrotation Xrotation Yrotation
										JOINT LeftHandMiddle2
										{
											OFFSET 6.17440 0.00000 0.00000
											CHANNELS 3 Zrotation Xrotation Yrotation
											JOINT LeftHandMiddle3
											{
												OFFSET 3.56744 0.00000 0.00000
												CHANNELS 3 Zrotation Xrotation Yrotation
												End site
												{
													OFFSET 0.00000 0.00000 0.00000
												}
											}
										}
									}
									JOINT LeftHandRing1
									{
										OFFSET 12.69180 0.00000 -3.06433
										CHANNELS 3 Zrotation Xrotation Yrotation
										JOINT LeftHandRing2
										{
											OFFSET 5.62556 0.00000 0.00000
											CHANNELS 3 Zrotation Xrotation Yrotation
											JOINT LeftHandRing3
											{
												OFFSET 3.56744 0.00000 0.00000
												CHANNELS 3 Zrotation Xrotation Yrotation
												End site
												{
													OFFSET 0.00000 0.00000 0.00000
												}
											}
										}
									}
									JOINT LeftHandPinky1
									{
										OFFSET 11.11390 0.00000 -6.03719
										CHANNELS 3 Zrotation Xrotation Yrotation
										JOINT LeftHandPinky2
										{
											OFFSET 4.52789 0.00000 0.00000
											CHANNELS 3 Zrotation Xrotation Yrotation
											JOINT LeftHandPinky3
											{
												OFFSET 2.46976 0.00000 0.00000
												CHANNELS 3 Zrotation Xrotation Yrotation
												End site
												{
													OFFSET 0.00000 0.00000 0.00000
												}
											}
										}
									}
								}
							}
						}
					}
					JOINT pCube4
					{
						OFFSET 0.00000 10.91090 1.10792
						CHANNELS 3 Zrotation Xrotation Yrotation
						End site
						{
							OFFSET 0.00000 0.00000 0.00000
						}
					}
				}
			}
		}
	}
	JOINT RightUpLeg
	{
		OFFSET -9.98441 0.00000 0.00000
		CHANNELS 3 Zrotation Xrotation Yrotation
		JOINT RightLeg
		{
			OFFSET 0.00000 -42.11790 0.00000
			CHANNELS 3 Zrotation Xrotation Yrotation
			JOINT RightFoot
			{
				OFFSET 0.00000 -45.00020 -0.00001
				CHANNELS 3 Zrotation Xrotation Yrotation
				JOINT RightForeFoot
				{
					OFFSET 0.00000 -3.74820 0.00000
					CHANNELS 3 Zrotation Xrotation Yrotation
					JOINT RightToeBase
					{
						OFFSET 0.00000 0.06325 14.43120
						CHANNELS 3 Zrotation Xrotation Yrotation
						End site
						{
							OFFSET 0.00000 0.00000 0.00000
						}
					}
				}
			}
		}
	}
	JOINT LeftUpLeg
	{
		OFFSET 9.98441 0.00000 0.00000
		CHANNELS 3 Zrotation Xrotation Yrotation
		JOINT LeftLeg
		{
			OFFSET 0.00000 -42.11800 0.00000
			CHANNELS 3 Zrotation Xrotation Yrotation
			JOINT LeftFoot
			{
				OFFSET 0.00000 -45.00070 0.00000
				CHANNELS 3 Zrotation Xrotation Yrotation
				JOINT LeftForeFoot
				{
					OFFSET 0.00000 -3.74824 0.00000
					CHANNELS 3 Zrotation Xrotation Yrotation
					JOINT LeftToeBase
					{
						OFFSET 0.00000 0.06325 14.43110
						CHANNELS 3 Zrotation Xrotation Yrotation
						End site
						{
							OFFSET 0.00000 0.00000 0.00000
						}
					}
				}
			}
		}
	}
}
MOTION
Frames: 4
Frame Time: 0.050000
0.02309677767862818 -0.023073167407029367 0.04232716059194859 -0.01917780737918208 0.02860010897184434 0.043729339862907314 -1.2997733764680242 1.6345482054913245 -0.9891005235522798 -0.959196760812137 3.9551256331712406 0.41950413306901285 -1.1672342552779273 -1.8883875996268487 -0.31330905913106444 0.6382093612134037 0.5748502941175979 -0.7140076486900683 0.619146229205822 14.53969215801139 -2.4487199282219283 0.15590300399653217 0.3099902740872094 -7.678054591686995 1.125347711188964 -15.048490536398557 -0.5947394668592779 -6.10405545853107 1.9948158599396526 -14.798904635999444 72.79623535986147 28.906170525295483 7.915966139014593 2.7321075866072335 2.367610827717285 66.9326466676684 21.647604305150736 -0.3829654764464096 -4.354802710464061 4.522474920756257 -0.12163496662376544 -1.5685821558774882 0.007560151139358967 0.0020515730615080496 -56.27404413541828 0.029286032557516654 0.0071855878849315736 -56.27572645530559 -38.76268604279405 -0.03694736512548647 0.0067345206176801205 -0.02366607821059967 -0.005466745715120092 0.04452550495506902 0.0087975059324499 -0.02619251705549242 -0.03111918030295427 -36.69524738376741 0.01300808900725152 0.02035793386608042 0.03672578942851363 0.008275312765122554 -0.04021096299786683 0.04925420131402801 -0.02783719812343267 -0.015795776189074278 -19.788723835053023 -0.006879715839923289 0.010476284479495234 -0.027726533544227987 0.03916019807932027 0.04361682894475997 0.015029200194480877 0.009520286873326305 -0.03224963192189486 24.082344213518567 0.035292526147151025 -0.023019829651399863 28.855447367990198 -0.006098386672128977 -0.016339737059606604 28.865913171325882 -0.015613075807584333 -0.03826197523473995 5.902586769525354 1.4875506397287201 13.174114258191905 -68.79855063953893 29.64086331928628 -7.567992029754717 3.5857738559096703 -10.01714087348538 -56.482377035316034 -10.894851169503468 -0.31003732567406944 2.1407329767688776 -0.5061629425518559 0.0950582970726279 -8.148360704580227 -0.045456834371153464 0.03242009830718177 44.54131060927672 -0.008842154431677823 0.001980484210518109 44.592433153386224 12.509035768310651 -0.016727626706663543 0.0130836718696592 0.005111095984284056 0.023939009391132714 0.011283656238049476 0.004956329668545472 0.0065741219861365635 -0.0249189445237773 11.142666715814567 0.002774540455019433 -0.013691396821406649 -0.04815959629114254 -0.03770875580856375 -0.016175602897053342 0.024414422650197692 0.004895742729416721 0.0009398952273394633 4.775509606814668 0.048873284459049524 -0.021641242956218623 0.016332975971421793 -0.0358523095567732 0.01650341530841019 0.04760273194599105 0.034800316944120065 0.049716893718015354 -5.55363331668511 -0.007556427148283521 0.0049842751090730325 -6.701339001501952 0.038428385025292916 0.013037684316923741 -6.716319961693069 0.012403372815634268 0.013422866213172695 -0.0321168663505495 -0.01807441900294856 -0.01616293585997907 8.038747133714788 3.492272531022448 -19.181510223256982 -0.015065428721377255 10.423366755981252 0.02087364041493526 -5.605378871044807 -15.652791958815342 3.229709434006791 -0.047956962712462047 0.009701988868723163 0.007345589669257529 -0.02269666789641419 4.653368086127622 0.006499363472046451 12.476550635354087 -8.250762561167008 6.853745108221427 0.02958683941361088 46.39740500726672 0.020287586462367776 -4.354268042864537 -14.785096447171835 -3.8139480493415077 -0.00023505279294804173 0.0016234986168955387 0.018997197731481598 0.022464109388927744 -10.723770627039974 -0.012049312330406646 
0.013098447152646686 0.019625606555038214 -0.039440637604514404 0.04579654746773199 0.00207614254906243 0.004431704980725377 -0.9831244533859366 1.5689874016604173 -1.0680970396497176 -0.8966632046927057 3.8883891509144806 0.4010168667961423 -1.169689026100737 -1.9570490894007597 -0.3085942151929624 0.6210811412975776 0.624131764442112 -0.6765286125211866 0.8146869268953798 14.586254671758452 -2.735296402528691 0.1797791368656767 0.3127807012536925 -8.389606834942487 1.1948390698239768 -15.035399615134104 -0.6373981317373143 -6.381761763982137 2.1454850621361397 -15.029650349527198 73.18680014789416 28.99508700393564 7.933819034885262 2.542997327596587 2.3194578596132938 66.28952898300955 21.53475954561982 -0.37205435113512747 -4.3878572429035145 4.558406978556995 -0.17674343276782228 -1.5819933131928134 -0.03341691397608854 -0.04008591383419294 -56.27964817183291 -0.027758611071143413 -0.04721445979930771 -56.237180853200606 -38.80334016258559 -0.0023909329378321094 0.00045466917220514223 0.009934277712231982 -0.04182747006327116 -0.010039540538632432 -0.014226847366812893 0.01465261284327873 0.0017958017590975228 -36.72736909605729 -0.0016075252670059055 -0.017401948163812457 0.02352438777179679 0.015543258951562342 0.02756101322188183 0.04230954238918735 -0.036266505724197796 -0.012326071827301222 -19.758675718120497 -0.03035988202279998 0.022792890740183234 -0.03634205739183051 -0.0260208733135432 0.011355879185892892 -0.02600195271923954 -0.024950557486842103 -0.027979417154803603 24.083306435668305 0.039383487183194 0.01655094265166227 28.876654203218543 0.02397162437994939 -0.0006525355686674691 28.890133216931787 -0.044037186330217 -0.02454587644928385 6.06294144628607 1.439456091752748 13.266917191978266 -69.20416255282466 29.66759219932275 -7.105300680784089 3.5617185810181993 -9.509553843915917 -54.82197434423453 -11.245065168775517 -0.2633673691834123 2.1063060448043736 -0.43288936240471815 0.10589238318667252 -8.128102378615148 -0.04274096188256185 0.04093766737454207 44.57031231448283 -0.03850308061268066 0.04470633872463164 44.56733010705301 12.461682363217053 0.021849282373343437 0.03433255694366572 0.0046202897692929745 0.016275080330866866 -0.007122158032974083 -0.022190136088138693 -0.012248809733414308 -0.014269910247316244 11.085119759394342 -0.04452689168810865 -0.03559872011108498 0.023741392889263586 0.02535216546696143 -0.005643131850059269 0.028801598208344565 -0.013923431084621796 0.004297696066024805 4.768562905162547 0.015318147103811745 -0.025468215366214172 -0.0003849471160190247 0.04773444805098175 0.01548891219091334 0.009891502896259625 -0.04844665985947736 -0.022854717136743554 -5.608743631784918 -0.03711837727566954 -0.011670579795290272 -6.681248184509023 0.042143222078095885 -0.014866310568985202 -6.680718137114751 0.0050132748594403165 -0.03744690190580682 -0.03691653005466335 0.04058255639426542 0.04422358829082675 8.021515826795294 3.508430299974157 -19.218240003703936 0.029507553113986815 10.34782271476113 0.013122808417966847 -5.649457373115853 -15.66805510677739 3.1775343553610664 0.04535823941842984 0.024061137989026943 0.017480148943725255 0.04894678243094463 4.717862328039208 0.01706948489867079 12.418210629200656 -8.23568493913498 6.871769016900467 -0.016403856766624158 46.351019605314896 0.03384190359513486 -4.372623473329727 -14.740222270020867 -3.846826411821987 0.0063573392065074275 0.010999417101115258 0.019597806943322565 0.028125813119005263 -10.728096154877708 -0.04010099687405443 
0.026865862721852943 0.00904649180180012 0.0226753385330162 0.020738385712091856 -0.027656057864763585 0.00010628225629534803 -0.7537337850543347 1.4949644243998732 -1.0579324881747925 -0.87749498318454 3.953044217141092 0.41733857237390765 -1.1948703117682735 -1.969052596548467 -0.26727293291751814 0.6625814008622706 0.5590026926840878 -0.6737037772981801 0.8575565949851387 14.550730664585581 -3.0861166399272104 0.19171262572930156 0.3556974338734806 -9.124909124446177 1.248772913682436 -15.101207914804094 -0.7551571547421595 -6.69191286554204 2.170218826955287 -15.187991876760288 73.22702768268631 29.176528693580607 8.164942748504087 2.6938439023362086 2.3051340877770334 66.18991287491275 21.53209369757752 -0.39878380355786947 -4.336420954878993 4.534193221683128 -0.16727858729830586 -1.593742049641001 -0.027779519228255747 -0.001421450596650015 -56.23331087185755 0.003830740658682886 0.020015951083323952 -56.212609610130436 -38.75095583489419 0.009169703920050603 0.030999170410531136 0.023382472470839494 -0.012513163351443493 0.04033222480267729 -0.0017545149373437551 0.012427396053192293 -0.044853583921276724 -36.697964575987314 0.01366964791502591 -0.048666930461881204 -0.004840465997718476 0.03742716493815317 0.002629477362007031 -0.028211246987684176 -0.0014902144332522933 0.018946779017092425 -19.788708647725617 -0.01903237195756964 -0.020577541073877294 0.0036352094560841595 0.015334857521755275 -0.037402184007435266 0.017808994356577342 -0.0014280703308034537 0.0018517711821116319 24.0146208828163 0.025852671647893847 0.002310610445439528 28.867091037462746 0.016623215181513707 0.026723561079928872 28.83886834446824 0.005951163930712882 0.0019289987893675823 6.030532188976438 1.535091693386473 13.353194254259344 -69.54008794965914 29.78155903525397 -6.420366067003664 3.2706311389184384 -8.989729474578064 -53.24305914415946 -11.799957947038639 -0.2032883962122228 2.0993847906790126 -0.5110138214272215 0.05899650051977674 -8.1059769211947 -0.009077246696321423 -0.00656700471603393 44.533465038674876 0.006106838341609735 -0.015923918070359245 44.5268444864099 12.426060336838043 0.03125588404168673 -0.036512144789848065 0.01913528680166105 0.013305618847654714 -0.024933810420720647 0.024110802394540984 -0.02183486364329946 0.037592912823666405 11.077660806037601 -0.015064305279191254 -0.025350514088782066 0.02202817110040358 -0.012948781438118926 -0.0035791897875030914 0.046387869674435735 -0.028857757012092675 0.04376410380231853 4.7608333440639585 0.017210811931969747 -0.02939836174410929 -0.0024581245500375696 0.02854997630878714 -0.030080279396466666 -0.045441285046822905 0.014784222613416413 0.021723471883748208 -5.564359389516416 0.019209130463699528 -0.027657297291238225 -6.698353858764016 0.0010174408551144527 -0.038734771168907556 -6.689945734457565 -0.02203563960961741 0.045042200978009865 0.00943887438621787 -0.0030714141742474704 -0.04123747005357491 8.03441713239088 3.5314962179191918 -19.23259331809093 -0.040941768883539016 10.371382902778521 -0.025042735592717563 -5.594948336548559 -15.673672357063444 3.199157807323638 -0.024538711560212038 0.013282449972833822 0.0064592352082965855 -0.04121144332778627 4.672601555038359 -0.03764723645944963 12.451405778305318 -8.231091173247988 6.90872358750509 -0.010207096376393858 46.35191124350683 -0.005119925912246498 -4.336450640818975 -14.727883355728434 -3.8219754869901346 0.019693337296613964 0.021722110369091562 0.007437836342028589 0.004052978088395464 -10.765186486052926 0.034139227282429706 
-0.000907658327751351 0.0001619257120749741 -0.03362086467233707 0.033065696697241846 0.00011560720010156313 -0.0359270736666819 -0.48698389793430236 1.406973603914672 -1.1019884252245364 -0.8723768124248762 3.934584593083485 0.33866660127955367 -1.1974003323471298 -1.9436658850582744 -0.1289111896371041 0.7412974882982737 0.5249114355697574 -0.6530256165605883 0.9410736612595502 14.56262984214624 -3.3108800085577514 0.13397170974926365 0.2980596517536351 -9.725157242664027 1.3423560933485188 -15.1862054535715 -0.7791797628863354 -6.927440037310781 2.2845959182734785 -15.329141139385914 73.32992204960016 29.241815768242777 8.259924282485535 1.7504952206291924 2.1641525286686907 66.11203212928689 21.668994962114628 -0.38440580697445176 -4.464407813970012 4.518238534237853 -0.16878435415929627 -1.5710208879698997 0.020811628993870318 -0.02686467472185601 -56.25745336372267 -0.005898167079294595 -0.027390523466918795 -56.21605970397519 -38.728969753148846 0.03113431878608178 0.004368108015300112 -0.03264398480696013 0.043582260047713775 -0.01127366320848662 0.009941996028562203 -0.02621193787053003 0.01766086730385742 -36.72115159461341 -0.041500011122060615 0.0007408229817008243 -0.011166971427156199 0.008392357577669747 -0.03488355227702886 -0.045829049993966794 0.021345203382887513 -0.047270304290984715 -19.773453430728953 -0.007839378589253628 -0.014912820536125873 0.027447394190176604 -0.026618254079586103 -0.04960206177865865 -0.03611374209997205 -0.03592392660742435 -0.036529960307155246 24.08341847525151 -0.029320506803940206 0.04093588281423559 28.884794215116955 -0.005760517008498949 0.0037908510478814276 28.896091406060343 0.019443067309000195 -0.008950084829029665 5.989730011104492 1.525460565985455 13.407999221575214 -69.99901020703899 29.8627557250371 -5.568858003213757 2.801244453437981 -8.159827771301346 -51.852556012698045 -12.352955074071968 -0.17229286226901414 2.0927992248775436 -0.45672076460279865 0.09789467728989945 -8.097350655699838 -0.012534717782746478 0.018309480895427402 44.59520601131753 -0.04546876949530367 -0.035092295946794166 44.615903090028745 12.438354121245693 0.035968087771178665 0.02413597584194886 -0.016406430524769873 -0.0032207512661480953 -0.018768324210296398 0.03906872444215455 0.04032020660360714 0.032081376591032086 11.103294278469392 -0.038687103724935015 0.01648877893693898 0.015421483998500565 -0.037011594797437215 0.015447855941922536 0.01819752012765767 -0.028828971534138645 -0.04988530189302879 4.7635069558598575 -0.03802750074017844 -0.030110607598170892 -0.015476794127480247 -0.02966733494718743 0.02495176063328687 -0.030353494140176147 0.023976729573754865 0.025303964496348266 -5.5831118945957545 -0.02079951302637055 -0.006072721281738393 -6.709249799741511 -0.026727758661174425 -0.012658180658962034 -6.72347423455437 0.01782507147713433 0.020680959531680396 -0.047383334865276426 -0.045702208441996024 0.036658183305748236 8.078953802356061 3.5344766892545354 -19.195271982179147 -0.03491598742280042 10.362548376474667 0.050059398851027406 -5.620300390992656 -15.623310869170572 3.1551065051847544 0.01948834951900478 0.0157296561593743 -0.015677460900601282 -0.03725751093474626 4.669742378721438 0.038355278456051356 12.42799384505724 -8.23221778880643 6.846382016809823 0.020013658018319162 46.41209972867769 0.04252106376017805 -4.36846980435775 -14.782502032046569 -3.836690578272359 0.044085457890370335 0.03830678625733534 -0.0020042773696958673 -0.030963067479960384 -10.764503083390547 -0.020466697342247004 
